<?xml version="1.0" standalone="yes"?>
<svg xmlns="http://www.w3.org/2000/svg" width="239" height="238">
<path style="fill:#ffffff; stroke:none;" d="M0 0L0 238L239 238L239 0L0 0z"/>
<path style="fill:#0b0b0b; stroke:none;" d="M3 3L3 59L4 59L4 21L3 3z"/>
<path style="fill:#010101; stroke:none;" d="M4 3L4 59L59 59L59 3L4 3M75 3L75 11L67 11L67 27L75 27L75 35L67 35L67 67L51 67L51 75L35 75L35 67L27 67L27 75L19 75L19 67L3 67L3 99L11 99L11 83L27 83L27 75L35 75L35 83L51 83L51 91L43 91L43 99L51 99L51 107L67 107L67 115L75 115L75 91L91 91L91 83L99 83L99 75L91 75L91 67L83 67L83 59L91 59L91 51L99 51L99 67L107 67L107 51L99 51L99 43L91 43L91 51L83 51L83 43L75 43L75 35L99 35L99 27L107 27L107 43L115 43L115 67L123 67L123 43L131 43L131 59L139 59L139 51L147 51L147 75L139 75L139 83L131 83L131 99L147 99L147 107L131 107L131 115L123 115L123 123L115 123L115 115L107 115L107 99L99 99L99 107L83 107L83 115L99 115L99 131L83 131L83 123L75 123L75 139L59 139L59 131L51 131L51 123L59 123L59 115L43 115L43 123L35 123L35 91L19 91L19 107L27 107L27 115L11 115L11 107L3 107L3 115L11 115L11 131L3 131L3 139L35 139L35 147L19 147L19 171L27 171L27 155L35 155L35 171L67 171L67 187L91 187L91 195L83 195L83 211L75 211L75 203L67 203L67 211L75 211L75 219L67 219L67 235L91 235L91 227L99 227L99 235L115 235L115 219L123 219L123 203L115 203L115 187L131 187L131 195L139 195L139 211L131 211L131 235L139 235L139 227L155 227L155 235L187 235L187 227L155 227L155 211L179 211L179 219L195 219L195 235L227 235L227 227L235 227L235 203L227 203L227 227L219 227L219 211L211 211L211 203L219 203L219 195L235 195L235 187L227 187L227 171L235 171L235 163L227 163L227 155L219 155L219 163L227 163L227 171L219 171L219 187L211 187L211 203L203 203L203 179L211 179L211 155L203 155L203 163L179 163L179 155L195 155L195 147L171 147L171 139L179 139L179 131L187 131L187 139L195 139L195 131L187 131L187 123L195 123L195 91L179 91L179 83L171 83L171 99L163 99L163 107L155 107L155 91L163 91L163 75L171 75L171 67L163 67L163 59L171 59L171 51L163 51L163 19L171 19L171 3L155 3L155 11L147 11L147 19L139 19L139 11L131 11L131 3L115 3L115 11L107 11L107 3L99 3L99 11L91 11L91 19L75 19L75 11L83 11L83 3L75 3z"/>
<path style="fill:#0b0b0b; stroke:none;" d="M179 3L179 59L180 59L180 21L179 3z"/>
<path style="fill:#010101; stroke:none;" d="M180 3L180 59L235 59L235 3L180 3M52 11L52 51L11 51L11 11L52 11z"/>
<path style="fill:#ffffff; stroke:none;" d="M12 11L12 51L51 51L51 11L12 11z"/>
<path style="fill:#0b0b0b; stroke:none;" d="M51 11L51 51L52 51C52 39.566 55.411 21.5119 51 11z"/>
<path style="fill:#ffffff; stroke:none;" d="M115 11L115 19L107 19L107 27L115 27L115 35L123 35L123 27L115 27L115 19L131 19L131 43L155 43L155 35L139 35L139 19L131 19L131 11L115 11M155 11L155 19L147 19L147 27L155 27L155 19L163 19L163 11L155 11z"/>
<path style="fill:#010101; stroke:none;" d="M228 11L228 51L187 51L187 11L228 11z"/>
<path style="fill:#ffffff; stroke:none;" d="M188 11L188 51L227 51L227 11L188 11z"/>
<path style="fill:#0b0b0b; stroke:none;" d="M227 11L227 51L228 51C228 39.5659 231.411 21.512 227 11z"/>
<path style="fill:#010101; stroke:none;" d="M19 19L19 43L43 43L43 19L19 19M195 19L195 43L219 43L219 19L195 19z"/>
<path style="fill:#ffffff; stroke:none;" d="M75 51L75 59L83 59L83 51L75 51M155 51L155 59L163 59L163 51L155 51M67 67L67 75L51 75L51 83L67 83L67 91L51 91L51 99L67 99L67 91L75 91L75 83L83 83L83 67L67 67M155 67L155 75L147 75L147 83L155 83L155 75L163 75L163 67L155 67z"/>
<path style="fill:#010101; stroke:none;" d="M179 67L179 75L195 75L195 83L211 83L211 75L227 75L227 83L235 83L235 75L227 75L227 67L211 67L211 75L203 75L203 67L179 67M67 75L67 83L75 83L75 75L67 75M107 75L107 83L115 83L115 75L107 75M115 91L115 107L123 107L123 91L115 91M203 91L203 131L211 131L211 147L235 147L235 139L227 139L227 131L235 131L235 115L227 115L227 107L235 107L235 91L203 91z"/>
<path style="fill:#ffffff; stroke:none;" d="M171 99L171 107L163 107L163 123L155 123L155 107L147 107L147 115L139 115L139 131L131 131L131 123L123 123L123 131L115 131L115 139L123 139L123 163L115 163L115 155L107 155L107 131L99 131L99 139L91 139L91 147L59 147L59 139L51 139L51 131L43 131L43 139L51 139L51 147L35 147L35 155L43 155L43 163L75 163L75 155L83 155L83 163L91 163L91 155L99 155L99 163L115 163L115 171L131 171L131 187L139 187L139 195L147 195L147 187L155 187L155 203L147 203L147 211L139 211L139 219L147 219L147 211L155 211L155 203L163 203L163 187L155 187L155 179L163 179L163 163L147 163L147 171L155 171L155 179L147 179L147 187L139 187L139 171L131 171L131 163L139 163L139 147L147 147L147 155L155 155L155 139L147 139L147 123L155 123L155 131L163 131L163 123L171 123L171 131L179 131L179 115L187 115L187 107L179 107L179 99L171 99M211 107L211 115L219 115L219 123L211 123L211 131L219 131L219 123L227 123L227 115L219 115L219 107L211 107M19 123L19 131L35 131L35 123L19 123z"/>
<path style="fill:#010101; stroke:none;" d="M3 147L3 155L11 155L11 147L3 147M51 147L51 155L59 155L59 147L51 147z"/>
<path style="fill:#ffffff; stroke:none;" d="M163 147L163 155L171 155L171 147L163 147z"/>
<path style="fill:#010101; stroke:none;" d="M3 163L3 171L11 171L11 163L3 163z"/>
<path style="fill:#ffffff; stroke:none;" d="M75 171L75 179L91 179L91 171L75 171M171 171L171 195L195 195L195 171L171 171z"/>
<path style="fill:#0b0b0b; stroke:none;" d="M3 179L3 235L4 235L4 197L3 179z"/>
<path style="fill:#010101; stroke:none;" d="M4 179L4 235L59 235L59 179L4 179z"/>
<path style="fill:#ffffff; stroke:none;" d="M107 179L107 187L115 187L115 179L107 179z"/>
<path style="fill:#010101; stroke:none;" d="M179 179L179 187L187 187L187 179L179 179M52 187L52 227L11 227L11 187L52 187z"/>
<path style="fill:#ffffff; stroke:none;" d="M12 187L12 227L51 227L51 187L12 187z"/>
<path style="fill:#0b0b0b; stroke:none;" d="M51 187L51 227L52 227C52 215.566 55.411 197.512 51 187z"/>
<path style="fill:#010101; stroke:none;" d="M19 195L19 219L43 219L43 195L19 195z"/>
<path style="fill:#ffffff; stroke:none;" d="M99 203L99 211L115 211L115 203L99 203M179 203L179 211L187 211L187 203L179 203M83 211L83 227L91 227L91 211L83 211M203 211L203 219L211 219L211 211L203 211M99 219L99 227L107 227L107 219L99 219z"/>
</svg>
