<?xml version="1.0" standalone="yes"?>
<svg xmlns="http://www.w3.org/2000/svg" width="237" height="237">
<path style="fill:#ffffff; stroke:none;" d="M0 0L0 237L237 237L237 0L0 0z"/>
<path style="fill:#0b0b0b; stroke:none;" d="M2 2L2 58L3 58L3 20L2 2z"/>
<path style="fill:#010101; stroke:none;" d="M3 2L3 58L58 58L58 2L3 2M82 2L82 18L90 18L90 2L82 2M98 2L98 10L106 10L106 2L98 2M114 2L114 18L130 18L130 26L122 26L122 34L114 34L114 26L106 26L106 18L98 18L98 34L114 34L114 42L90 42L90 50L82 50L82 34L90 34L90 26L66 26L66 34L74 34L74 42L66 42L66 58L74 58L74 66L50 66L50 74L42 74L42 66L2 66L2 74L34 74L34 82L42 82L42 90L34 90L34 98L42 98L42 106L34 106L34 114L26 114L26 106L18 106L18 98L26 98L26 90L18 90L18 82L10 82L10 98L2 98L2 106L10 106L10 114L18 114L18 146L26 146L26 154L18 154L18 170L26 170L26 162L34 162L34 170L66 170L66 186L74 186L74 194L66 194L66 234L74 234L74 226L82 226L82 234L90 234L90 218L74 218L74 202L82 202L82 210L90 210L90 202L98 202L98 234L130 234L130 226L106 226L106 218L154 218L154 210L186 210L186 226L170 226L170 218L162 218L162 226L170 226L170 234L186 234L186 226L194 226L194 234L202 234L202 226L210 226L210 234L218 234L218 226L210 226L210 218L226 218L226 226L234 226L234 218L226 218L226 210L210 210L210 202L234 202L234 186L218 186L218 194L210 194L210 186L202 186L202 178L210 178L210 170L218 170L218 178L226 178L226 162L234 162L234 138L226 138L226 130L234 130L234 122L226 122L226 106L218 106L218 114L210 114L210 98L202 98L202 90L186 90L186 122L178 122L178 114L122 114L122 122L114 122L114 114L82 114L82 106L90 106L90 98L66 98L66 82L50 82L50 74L82 74L82 90L90 90L90 74L98 74L98 82L106 82L106 74L98 74L98 58L106 58L106 50L114 50L114 66L122 66L122 74L114 74L114 90L122 90L122 82L130 82L130 90L154 90L154 98L138 98L138 106L154 106L154 98L162 98L162 90L170 90L170 98L178 98L178 90L170 90L170 74L178 74L178 82L186 82L186 74L194 74L194 82L210 82L210 90L226 90L226 98L234 98L234 82L226 82L226 66L218 66L218 82L210 82L210 66L202 66L202 74L194 74L194 66L186 66L186 74L178 74L178 66L162 66L162 58L170 58L170 42L154 42L154 34L146 34L146 42L138 42L138 50L130 50L130 42L122 42L122 34L138 34L138 18L154 18L154 26L170 26L170 18L154 18L154 10L170 10L170 2L146 2L146 10L138 10L138 18L130 18L130 10L122 10L122 2L114 2z"/>
<path style="fill:#0b0b0b; stroke:none;" d="M178 2L178 58L179 58L179 20L178 2z"/>
<path style="fill:#010101; stroke:none;" d="M179 2L179 58L234 58L234 2L179 2M51 10L51 50L10 50L10 10L51 10z"/>
<path style="fill:#ffffff; stroke:none;" d="M11 10L11 50L50 50L50 10L11 10z"/>
<path style="fill:#0b0b0b; stroke:none;" d="M50 10L50 50L51 50C51 38.566 54.411 20.5119 50 10z"/>
<path style="fill:#010101; stroke:none;" d="M66 10L66 18L74 18L74 10L66 10M227 10L227 50L186 50L186 10L227 10z"/>
<path style="fill:#ffffff; stroke:none;" d="M187 10L187 50L226 50L226 10L187 10z"/>
<path style="fill:#0b0b0b; stroke:none;" d="M226 10L226 50L227 50C227 38.5659 230.411 20.512 226 10z"/>
<path style="fill:#010101; stroke:none;" d="M18 18L18 42L42 42L42 18L18 18M194 18L194 42L218 42L218 18L194 18z"/>
<path style="fill:#ffffff; stroke:none;" d="M114 42L114 50L122 50L122 58L130 58L130 50L122 50L122 42L114 42M74 50L74 58L82 58L82 50L74 50M90 50L90 58L98 58L98 50L90 50M138 50L138 74L130 74L130 82L146 82L146 74L154 74L154 90L162 90L162 66L154 66L154 58L162 58L162 50L154 50L154 58L146 58L146 50L138 50M82 66L82 74L90 74L90 66L82 66M42 90L42 98L58 98L58 90L42 90z"/>
<path style="fill:#010101; stroke:none;" d="M98 90L98 106L114 106L114 98L106 98L106 90L98 90M122 98L122 106L130 106L130 98L122 98z"/>
<path style="fill:#ffffff; stroke:none;" d="M194 98L194 106L202 106L202 98L194 98M42 106L42 114L34 114L34 122L50 122L50 130L42 130L42 138L26 138L26 146L42 146L42 154L34 154L34 162L42 162L42 154L50 154L50 162L58 162L58 154L50 154L50 146L58 146L58 138L50 138L50 130L74 130L74 138L66 138L66 170L74 170L74 178L82 178L82 186L90 186L90 178L106 178L106 186L98 186L98 194L114 194L114 202L106 202L106 210L122 210L122 194L130 194L130 202L138 202L138 210L146 210L146 202L162 202L162 186L154 186L154 170L162 170L162 162L178 162L178 154L186 154L186 162L194 162L194 154L210 154L210 162L202 162L202 170L210 170L210 162L218 162L218 138L210 138L210 130L226 130L226 122L210 122L210 114L194 114L194 122L186 122L186 130L178 130L178 122L162 122L162 130L154 130L154 122L122 122L122 130L154 130L154 146L146 146L146 138L130 138L130 146L138 146L138 154L106 154L106 146L114 146L114 122L98 122L98 138L90 138L90 162L82 162L82 154L74 154L74 146L82 146L82 130L74 130L74 122L82 122L82 114L74 114L74 122L50 122L50 114L58 114L58 106L42 106z"/>
<path style="fill:#010101; stroke:none;" d="M194 122L194 138L202 138L202 146L210 146L210 138L202 138L202 122L194 122M162 130L162 138L170 138L170 146L154 146L154 154L146 154L146 162L162 162L162 154L178 154L178 130L162 130M2 138L2 170L10 170L10 138L2 138M98 138L98 146L106 146L106 138L98 138M186 146L186 154L194 154L194 146L186 146M98 154L98 170L114 170L114 162L106 162L106 154L98 154M122 162L122 170L138 170L138 162L122 162M82 170L82 178L90 178L90 170L82 170z"/>
<path style="fill:#ffffff; stroke:none;" d="M170 170L170 194L194 194L194 170L170 170z"/>
<path style="fill:#0b0b0b; stroke:none;" d="M2 178L2 234L3 234L3 196L2 178z"/>
<path style="fill:#010101; stroke:none;" d="M3 178L3 234L58 234L58 178L3 178M114 178L114 186L146 186L146 194L138 194L138 202L146 202L146 194L154 194L154 186L146 186L146 178L114 178M178 178L178 186L186 186L186 178L178 178M51 186L51 226L10 226L10 186L51 186z"/>
<path style="fill:#ffffff; stroke:none;" d="M11 186L11 226L50 226L50 186L11 186z"/>
<path style="fill:#0b0b0b; stroke:none;" d="M50 186L50 226L51 226C51 214.566 54.411 196.512 50 186z"/>
<path style="fill:#010101; stroke:none;" d="M18 194L18 218L42 218L42 194L18 194z"/>
<path style="fill:#ffffff; stroke:none;" d="M202 194L202 202L186 202L186 210L202 210L202 218L194 218L194 226L202 226L202 218L210 218L210 210L202 210L202 202L210 202L210 194L202 194z"/>
<path style="fill:#010101; stroke:none;" d="M138 226L138 234L146 234L146 226L138 226z"/>
</svg>
