<?xml version="1.0" encoding="UTF-8" standalone="no"?>
<svg 
    role="img" 
    xmlns="http://www.w3.org/2000/svg" 
    width="1000mm"
    height="1000mm"
    viewBox="0 0 1000 1000"
    style="max-width:1.6em; height: auto;">
    
    <path 
        id="path" 
        style="opacity:1;vector-effect:none;fill:#000000;fill-opacity:1;"
        d="M 500 0C 224 0 0 224 0 500C 0 776 224 1000 500 1000C 776 1000 1000 776 1000 500C 1000 224 776 0 500 0C 500 0 500 0 500 0 M 331 168C 331 168 537 168 537 168C 608 168 659 190 690 225C 714 255 726 306 720 349C 693 489 600 537 481 537C 481 537 421 537 421 537C 407 537 395 548 392 562C 402 496 351 824 361 758C 361 758 233 758 233 758C 222 758 214 749 216 738C 216 738 302 193 302 193C 304 179 316 168 331 168C 331 168 331 168 331 168M 742 367C 753 373 763 381 771 390C 798 420 803 462 793 513C 769 636 688 678 584 678C 584 678 568 678 568 678C 555 678 544 687 542 700C 534 745 528 790 520 835C 520 835 519 841 519 841C 517 853 507 862 494 862C 494 862 387 862 387 862C 377 862 370 854 371 844C 371 844 380 789 380 789C 380 789 411 592 411 592C 413 578 426 567 440 567C 440 567 501 567 501 567C 620 567 713 519 740 379C 741 375 741 371 742 367C 742 367 742 367 742 367"
        transform="">
    </path>    
</svg>