<svg xmlns="http://www.w3.org/2000/svg" version="1.0" width="512.000000pt" height="512.000000pt" viewBox="0 0 512.000000 512.000000" preserveAspectRatio="xMidYMid meet">

<g transform="translate(0.000000,512.000000) scale(0.100000,-0.100000)" fill="#ffffff" stroke="none">
<path d="M4471 4935 c-100 -28 -172 -91 -217 -188 -24 -53 -26 -68 -23 -154 l4 -95 -424 -362 -424 -363 -51 20 c-40 15 -68 18 -126 15 -80 -5 -134 -26 -202 -80 l-38 -30 -172 60 c-95 33 -260 91 -367 129 l-195 68 -13 60 c-25 110 -86 184 -193 234 -43 20 -71 25 -130 26 -66 0 -85 -5 -142 -33 -80 -39 -139 -102 -168 -178 -21 -58 -26 -147 -11 -201 l9 -31 -461 -404 c-253 -221 -466 -406 -473 -410 -6 -5 -29 -1 -50 8 -50 21 -166 21 -222 0 -190 -69 -273 -279 -183 -461 36 -73 82 -117 161 -154 73 -34 191 -35 262 -3 63 28 134 95 166 157 25 45 27 60 27 161 l0 111 450 393 c248 216 457 399 466 407 13 11 22 11 55 -3 24 -11 67 -17 114 -17 85 -1 159 26 221 81 l36 31 369 -129 c202 -72 369 -130 370 -130 1 0 4 -20 7 -45 14 -97 85 -192 182 -243 43 -23 62 -27 140 -27 78 0 97 4 146 28 67 32 133 100 161 165 25 55 34 153 20 204 l-10 38 406 347 c223 192 417 356 429 366 22 18 25 18 70 1 110 -42 255 -10 340 74 70 70 98 139 98 237 0 71 -4 88 -33 147 -70 143 -230 215 -381 173z" fill="#ffffff"/>
<path d="M4240 3608 c-26 -14 -53 -37 -65 -58 -20 -35 -20 -47 -20 -1605 l0 -1570 23 -36 c41 -67 54 -69 385 -69 289 0 295 0 328 23 19 12 42 38 52 57 16 33 17 126 15 1607 -3 1570 -3 1572 -24 1599 -11 15 -33 37 -48 48 -26 20 -43 21 -314 24 -282 3 -288 2 -332 -20z" fill="#ffffff"/>
<path d="M1572 2820 c-18 -11 -41 -34 -52 -52 -20 -32 -20 -53 -20 -1241 0 -1346 -5 -1254 69 -1299 35 -23 42 -23 331 -23 324 0 328 1 375 63 20 27 20 45 23 1247 2 1203 2 1220 -18 1253 -11 18 -34 41 -52 52 -31 19 -51 20 -328 20 -277 0 -297 -1 -328 -20z" fill="#ffffff"/>
<path d="M2915 2390 c-11 -4 -33 -22 -50 -40 l-30 -31 -3 -987 c-3 -1103 -8 -1028 67 -1075 34 -21 48 -22 296 -25 169 -3 278 0 311 7 51 12 89 41 113 88 8 16 11 294 11 990 0 1080 4 1011 -69 1060 -33 23 -38 23 -330 22 -163 0 -305 -4 -316 -9z" fill="#ffffff"/>
<path d="M242 1530 c-18 -11 -41 -34 -52 -52 -19 -32 -20 -52 -20 -613 0 -658 -4 -628 80 -672 42 -22 51 -23 319 -23 251 0 280 2 318 20 25 11 51 33 63 52 19 32 20 49 20 618 0 566 -1 586 -20 618 -11 18 -34 41 -52 52 -31 19 -51 20 -328 20 -277 0 -297 -1 -328 -20z" fill="#ffffff"/>
</g>
</svg>