<svg xmlns="http://www.w3.org/2000/svg" xmlns:xlink="http://www.w3.org/1999/xlink" fill="#ffffff" height="800px" width="800px" version="1.1" id="Layer_1" viewBox="0 0 512 512" xml:space="preserve">
<g>
	<g>
		<path d="M512,256c0-35.857-22.122-66.526-53.455-79.156c18.11-32.475,13.395-74.272-14.195-101.862    c-28.769-28.769-72.954-32.686-105.935-11.794C328.661,26.798,295.47,0,256,0c-38.149,0-70.439,25.032-81.365,59.565    c-32.141-16.69-72.685-11.561-99.651,15.405c-26.98,26.98-32.115,67.524-15.418,99.665C25.033,185.56,0,217.851,0,256    c0,40.487,28.2,74.361,66.025,83.113c-15.616,31.863-10.208,71.408,16.261,97.9c25.247,25.247,62.346,31.358,93.347,18.372    C187.426,488.383,218.947,512,256,512c38.15,0,70.442-25.034,81.366-59.569c32.153,16.686,72.67,11.556,99.647-15.398    c26.987-26.987,32.121-67.521,15.422-99.668C486.968,326.439,512,294.149,512,256z M298.667,298.667h-85.333v-85.333h85.333    V298.667z M348.646,110.329l5.172-5.163c16.67-16.684,43.691-16.684,60.362-0.014c16.65,16.65,16.65,43.676,0,60.326l-5.186,5.186    h-60.347V110.329z M213.333,85.333c0-23.567,19.099-42.667,42.667-42.667s42.667,19.099,42.667,42.667v85.333h-85.333v-69.178    V85.333z M105.154,105.139c16.65-16.65,43.676-16.65,60.326,0l5.186,5.186v60.341h-60.342l-5.156-5.166    C88.484,148.831,88.484,121.81,105.154,105.139z M42.667,256c0-23.567,19.099-42.667,42.667-42.667h16.02    c0.043,0,0.086,0.006,0.129,0.006h69.184v85.327H85.333C61.766,298.667,42.667,279.567,42.667,256z M112.463,406.85    c-16.652-16.667-16.652-43.681,0.006-60.354l5.168-5.158h53.029v67.5C153.899,423.482,128.439,422.826,112.463,406.85z     M256,469.333c-23.567,0-42.667-19.099-42.667-42.666l1.082-1.082c4.001-4.001,6.248-9.427,6.248-15.085v-69.167h78.003v85.333    C298.667,450.234,279.567,469.333,256,469.333z M406.85,406.856c-16.667,16.652-43.681,16.652-60.354-0.006l-5.158-5.168v-60.349    h60.337l5.176,5.176C423.521,363.18,423.521,390.185,406.85,406.856z M426.667,298.667h-15.951    c-0.072-0.001-0.143-0.011-0.216-0.011h-69.167v-85.323h85.333c23.567,0,42.667,19.099,42.667,42.667    S450.234,298.667,426.667,298.667z" fill="#ffffff"/>
	</g>
</g>
</svg>