<svg xmlns="http://www.w3.org/2000/svg" xmlns:xlink="http://www.w3.org/1999/xlink" version="1.1" x="0px" y="0px" viewBox="0 0 256 256" enable-background="new 0 0 256 256" xml:space="preserve">
<metadata fill="#ffffff"> Svg Vector Icons : http://www.onlinewebfonts.com/icon </metadata>
<g><g><g><path fill="#ffffff" d="M212.3,10H43.7C25.1,10,10,25.1,10,43.7v168.6c0,18.6,15.1,33.7,33.7,33.7h168.6c18.6,0,33.7-15.1,33.7-33.7V43.7C246,25.1,230.9,10,212.3,10z M58.9,52.1h67.7c5.6,0,10.1,4.5,10.1,10.1c0,5.6-4.5,10.1-10.1,10.1H58.9c-5.6,0-10.1-4.5-10.1-10.1C48.8,56.7,53.3,52.1,58.9,52.1z M58.9,96h67.4c5.6,0,10.1,4.5,10.1,10.1c0,5.6-4.5,10.1-10.1,10.1H58.9c-5.6,0-10.1-4.5-10.1-10.1C48.8,100.5,53.3,96,58.9,96z M197.1,203.9H58.9c-5.6,0-10.1-4.5-10.1-10.1c0-5.6,4.5-10.1,10.1-10.1h138.2c5.6,0,10.1,4.5,10.1,10.1C207.2,199.3,202.7,203.9,197.1,203.9z M197.1,160H58.9c-5.6,0-10.1-4.5-10.1-10.1c0-5.6,4.5-10.1,10.1-10.1h138.2c5.6,0,10.1,4.5,10.1,10.1C207.2,155.5,202.7,160,197.1,160z"/></g><g/><g/><g/><g/><g/><g/><g/><g/><g/><g/><g/><g/><g/><g/><g/></g></g>
</svg>