<svg xmlns="http://www.w3.org/2000/svg" version="1.0" width="492.000000pt" height="492.000000pt" viewBox="0 0 492.000000 492.000000" preserveAspectRatio="xMidYMid meet">

<g transform="translate(0.000000,492.000000) scale(0.100000,-0.100000)" fill="#ffffff" stroke="none">
<path d="M605 4903 c-268 -38 -497 -239 -572 -503 -17 -62 -18 -151 -18 -1935 0 -1534 2 -1880 13 -1925 8 -30 34 -97 59 -149 38 -79 59 -108 127 -176 90 -89 171 -137 296 -177 l75 -23 1880 0 1880 0 77 26 c115 40 204 94 283 173 82 83 135 169 173 281 l27 80 0 1880 0 1880 -23 75 c-39 125 -88 207 -177 296 -63 63 -99 90 -165 123 -168 83 31 75 -2050 77 -1020 1 -1868 -1 -1885 -3z m3516 -534 c59 -13 126 -67 153 -123 22 -46 20 -109 -3 -155 -22 -42 -80 -97 -118 -112 -14 -5 -408 -9 -967 -9 l-942 0 -48 30 c-53 34 -96 110 -96 170 0 38 31 113 58 143 23 25 69 49 112 58 61 12 1793 10 1851 -2z m-3185 -24 c79 -46 116 -142 89 -231 -26 -88 -100 -144 -190 -144 -62 0 -103 19 -148 69 -45 50 -57 78 -57 132 0 69 34 125 105 173 53 36 140 37 201 1z m565 5 c141 -72 141 -288 -1 -360 -83 -42 -200 -18 -253 52 -77 102 -48 250 60 307 52 27 141 28 194 1z m2868 -871 c61 -30 91 -61 127 -129 18 -34 19 -88 22 -1359 3 -1512 9 -1395 -82 -1486 -92 -93 86 -85 -1966 -85 -2052 0 -1874 -8 -1966 85 -91 91 -85 -26 -82 1486 l3 1324 22 41 c35 65 69 100 125 128 l52 26 1841 0 1842 0 62 -31z" fill="#ffffff"/>
<path d="M2696 3155 c-38 -13 -90 -55 -106 -86 -5 -9 -126 -438 -270 -953 -172 -621 -260 -953 -260 -984 1 -110 85 -202 184 -202 97 0 182 66 209 161 191 667 510 1844 509 1877 0 64 -38 131 -96 170 -54 36 -103 41 -170 17z" fill="#ffffff"/>
<path d="M3325 2689 c-51 -12 -110 -59 -135 -110 -24 -47 -26 -128 -4 -172 9 -18 91 -107 182 -199 l167 -168 -167 -167 c-91 -93 -173 -182 -182 -200 -34 -68 -13 -176 46 -229 59 -54 155 -70 223 -38 50 23 548 505 571 551 24 51 24 141 -2 180 -31 47 -536 525 -569 538 -47 20 -87 24 -130 14z" fill="#ffffff"/>
<path d="M1517 2665 c-53 -13 -52 -13 -374 -323 -206 -197 -224 -218 -238 -265 -18 -59 -12 -121 13 -158 18 -26 404 -398 503 -486 83 -73 157 -86 244 -41 90 47 133 173 89 261 -9 18 -91 107 -182 200 l-167 167 167 168 c91 92 173 181 182 199 9 18 16 55 16 83 0 134 -123 228 -253 195z" fill="#ffffff"/>
</g>
</svg>