<?xml version="1.0" encoding="utf-8"?>
<!-- Svg Vector Icons : http://www.onlinewebfonts.com/icon -->
<!DOCTYPE svg PUBLIC "-//W3C//DTD SVG 1.1//EN" "http://www.w3.org/Graphics/SVG/1.1/DTD/svg11.dtd">
<svg version="1.1" xmlns="http://www.w3.org/2000/svg" xmlns:xlink="http://www.w3.org/1999/xlink" x="0px" y="0px" viewBox="0 0 1000 1000" enable-background="new 0 0 1000 1000" xml:space="preserve">
<metadata> Svg Vector Icons : http://www.onlinewebfonts.com/icon </metadata>
<g><path d="M500,10C229.4,10,10,229.3,10,500c0,270.6,219.4,490,490,490s490-219.5,490-490C990,229.3,770.7,10,500,10z M219.3,310.3h12.1c179.7,0,359.4,0.1,539-0.1c8.1,0,10.5,2,10.5,10.4c-0.1,119.8-0.1,239.7,0,359.5c0,7.7-2.3,9.7-9.6,9.7c-180.8-0.3-361.7-0.3-542.5-0.1c-6.3,0-9.6-0.7-9.6-8.6c0.3-119.5,0.2-239,0.1-358.6V310.3L219.3,310.3z M263.6,335c3.5,3.6,4.9,5.3,6.8,7c60.3,55.5,120.5,110.9,181,166.4c9.6,8.9,19.5,17.7,30.3,25.4c12.2,8.6,25.8,8.7,37.7-0.7c12.6-9.7,24.4-20.3,36.1-31.1c57.6-52.6,115-105.4,172.4-158.3c2.5-2.2,4.5-4.9,7.7-8.8C577.7,335,421.9,335,263.6,335L263.6,335z M262.9,661.9c1,1.2,1.8,2.2,2.8,3.3h469c0.7-0.9,1.2-1.8,1.6-2.8c-3.2-2.4-6.8-4.7-9.7-7.5c-48.3-44.2-96.7-88.3-144.6-132.8c-6.4-5.8-9.8-5-15.5,0.3c-12.3,11.2-24.8,21.9-38,31.9c-18.4,13.9-37.9,14.3-56.6,0.3c-13.5-10.3-26.4-21.5-39.2-32.9c-5.4-5-8.7-4.9-14.1,0.1c-48.5,44.9-97.3,89.4-146,134.1C269.9,658.3,266.2,660,262.9,661.9L262.9,661.9z M409,500c-54.4-49.8-107.8-99-162.7-149.2v298.7C301.4,598.8,354.7,549.9,409,500L409,500z M754.3,353.9c-0.9-0.5-1.7-0.9-2.5-1.4c-53.3,49-106.4,98-160.5,147.5c54.5,50.1,107.8,99,162.9,149.6C754.3,549.2,754.3,451.6,754.3,353.9L754.3,353.9z"/></g>
</svg>