<svg xmlns="http://www.w3.org/2000/svg" version="1.0" width="980.000000pt" height="980.000000pt" viewBox="0 0 980.000000 980.000000" preserveAspectRatio="xMidYMid meet">

<g transform="translate(0.000000,980.000000) scale(0.100000,-0.100000)" fill="#282828" stroke="none">
<path d="M4661 9789 c-12 -5 -52 -8 -89 -8 -37 1 -92 -1 -122 -4 -615 -62 -1159 -214 -1685 -472 -799 -391 -1464 -970 -1939 -1688 -308 -466 -510 -918 -651 -1451 -50 -190 -100 -449 -120 -616 -9 -80 -19 -152 -22 -160 -3 -8 -5 -36 -4 -62 2 -26 -1 -53 -5 -59 -3 -6 -6 -54 -5 -105 1 -52 -1 -94 -6 -94 -4 0 -8 -74 -8 -165 0 -91 4 -165 8 -165 5 0 7 -43 5 -95 -2 -52 0 -95 5 -95 4 0 7 -19 7 -42 0 -57 24 -254 49 -411 65 -400 183 -801 341 -1162 113 -258 201 -425 342 -648 684 -1083 1776 -1860 3028 -2156 196 -46 469 -92 628 -105 321 -27 734 -28 947 -1 17 2 59 7 95 10 601 60 1321 297 1860 615 395 232 696 465 1021 790 414 414 694 800 950 1310 354 706 524 1453 506 2230 -4 135 -8 256 -11 270 -2 14 -7 56 -10 93 -24 290 -114 720 -212 1022 -252 769 -662 1440 -1229 2010 -382 385 -869 728 -1357 956 -535 250 -1057 391 -1653 445 -33 3 -78 8 -100 11 -75 8 -541 10 -564 2z m359 -1997 c0 -5 42 -12 93 -15 210 -14 468 -86 682 -190 218 -107 374 -217 526 -374 504 -517 680 -1290 446 -1968 -47 -135 -124 -295 -839 -1737 -396 -799 -764 -1547 -817 -1663 -93 -201 -161 -325 -179 -325 -13 0 -115 195 -238 455 -60 126 -297 610 -528 1075 -956 1930 -1018 2058 -1076 2229 -42 125 -66 240 -86 406 -9 84 -3 354 12 435 2 14 9 54 15 90 78 462 339 891 718 1179 310 236 668 366 1083 392 89 5 164 12 167 14 7 8 21 6 21 -3z" fill="#282828"/>
<path d="M4825 6820 c-3 -6 -16 -10 -29 -10 -37 0 -169 -37 -251 -69 -320 -128 -548 -451 -573 -811 -15 -204 44 -421 159 -591 176 -262 486 -437 784 -443 388 -7 727 207 896 568 80 172 108 398 71 576 -62 301 -282 582 -554 710 -129 60 -184 72 -350 76 -88 2 -150 -1 -153 -6z" fill="#282828"/>
</g>
</svg>