<?xml version="1.0" standalone="yes"?>
<svg xmlns="http://www.w3.org/2000/svg" width="227" height="226">
<path style="fill:#ffffff; stroke:none;" d="M0 0L0 226L227 226L227 0L0 0z"/>
<path style="fill:#070707; stroke:none;" d="M2 2L2 44L3 44C3 32.0427 6.61066 12.9878 2 2z"/>
<path style="fill:#010101; stroke:none;" d="M3 2L3 44L44 44L44 2L3 2M56 2L56 8L50 8L50 14L56 14L56 20L50 20L50 26L62 26L62 44L68 44L68 26L74 26L74 32L80 32L80 38L74 38L74 56L86 56L86 50L92 50L92 56L98 56L98 50L104 50L104 38L98 38L98 44L92 44L92 32L104 32L104 26L110 26L110 32L116 32L116 38L110 38L110 50L122 50L122 56L116 56L116 62L122 62L122 68L110 68L110 74L104 74L104 62L68 62L68 68L56 68L56 62L62 62L62 56L68 56L68 50L38 50L38 56L32 56L32 50L2 50L2 74L14 74L14 68L20 68L20 74L26 74L26 80L32 80L32 86L38 86L38 92L50 92L50 68L56 68L56 74L62 74L62 86L56 86L56 92L62 92L62 98L56 98L56 104L62 104L62 110L56 110L56 116L44 116L44 110L38 110L38 116L32 116L32 110L26 110L26 104L20 104L20 110L14 110L14 116L8 116L8 128L2 128L2 140L8 140L8 128L14 128L14 134L20 134L20 146L14 146L14 152L26 152L26 128L32 128L32 140L44 140L44 146L38 146L38 152L50 152L50 158L38 158L38 164L32 164L32 170L38 170L38 176L44 176L44 170L50 170L50 158L68 158L68 164L62 164L62 170L68 170L68 176L74 176L74 200L62 200L62 194L68 194L68 182L62 182L62 176L50 176L50 188L62 188L62 194L50 194L50 224L68 224L68 218L56 218L56 212L62 212L62 206L68 206L68 212L86 212L86 218L80 218L80 224L104 224L104 218L110 218L110 224L116 224L116 218L122 218L122 224L128 224L128 218L140 218L140 212L122 212L122 206L140 206L140 194L146 194L146 188L122 188L122 182L152 182L152 188L158 188L158 194L170 194L170 206L176 206L176 218L164 218L164 212L158 212L158 206L164 206L164 200L158 200L158 206L152 206L152 218L164 218L164 224L176 224L176 218L200 218L200 212L194 212L194 206L206 206L206 212L212 212L212 218L206 218L206 224L224 224L224 218L218 218L218 212L224 212L224 200L212 200L212 206L206 206L206 200L200 200L200 182L206 182L206 188L224 188L224 164L218 164L218 152L224 152L224 146L218 146L218 140L224 140L224 122L218 122L218 116L224 116L224 110L206 110L206 116L212 116L212 122L200 122L200 128L194 128L194 116L200 116L200 110L194 110L194 104L200 104L200 98L194 98L194 86L182 86L182 92L176 92L176 80L170 80L170 74L176 74L176 68L200 68L200 74L194 74L194 80L206 80L206 68L218 68L218 74L212 74L212 86L200 86L200 92L206 92L206 104L224 104L224 98L218 98L218 92L224 92L224 62L218 62L218 50L212 50L212 62L206 62L206 68L200 68L200 56L206 56L206 50L200 50L200 56L194 56L194 50L188 50L188 56L182 56L182 50L176 50L176 32L164 32L164 26L170 26L170 20L176 20L176 8L164 8L164 2L158 2L158 14L152 14L152 20L146 20L146 8L152 8L152 2L146 2L146 8L140 8L140 2L128 2L128 8L116 8L116 20L110 20L110 14L98 14L98 8L104 8L104 2L98 2L98 8L68 8L68 14L62 14L62 2L56 2z"/>
<path style="fill:#070707; stroke:none;" d="M182 2L182 44L183 44C183 32.0427 186.611 12.9878 182 2z"/>
<path style="fill:#010101; stroke:none;" d="M183 2L183 44L224 44L224 2L183 2M39 8L39 38L8 38L8 8L39 8z"/>
<path style="fill:#ffffff; stroke:none;" d="M9 8L9 38L38 38L38 8L9 8z"/>
<path style="fill:#070707; stroke:none;" d="M38 8L38 38L39 38L38 8z"/>
<path style="fill:#ffffff; stroke:none;" d="M128 8L128 14L122 14L122 20L116 20L116 26L122 26L122 38L116 38L116 44L122 44L122 38L128 38L128 56L134 56L134 62L128 62L128 68L122 68L122 74L116 74L116 80L104 80L104 74L98 74L98 80L92 80L92 68L74 68L74 80L68 80L68 98L62 98L62 104L68 104L68 110L62 110L62 116L56 116L56 122L44 122L44 116L38 116L38 122L32 122L32 116L26 116L26 122L20 122L20 116L14 116L14 122L20 122L20 128L26 128L26 122L32 122L32 128L38 128L38 134L44 134L44 140L50 140L50 152L68 152L68 158L80 158L80 164L74 164L74 170L80 170L80 200L74 200L74 206L86 206L86 212L92 212L92 200L86 200L86 170L104 170L104 176L98 176L98 182L92 182L92 188L98 188L98 182L110 182L110 188L104 188L104 194L110 194L110 188L116 188L116 206L110 206L110 200L104 200L104 206L98 206L98 212L110 212L110 218L116 218L116 206L122 206L122 188L116 188L116 182L122 182L122 176L134 176L134 170L116 170L116 158L122 158L122 164L158 164L158 170L140 170L140 176L152 176L152 182L158 182L158 188L164 188L164 182L158 182L158 170L164 170L164 164L158 164L158 152L152 152L152 146L158 146L158 140L152 140L152 134L164 134L164 140L170 140L170 134L176 134L176 128L182 128L182 134L188 134L188 140L194 140L194 146L176 146L176 152L170 152L170 158L176 158L176 164L182 164L182 170L188 170L188 164L194 164L194 170L212 170L212 164L194 164L194 146L200 146L200 158L212 158L212 152L218 152L218 146L212 146L212 140L206 140L206 134L218 134L218 122L212 122L212 128L200 128L200 140L194 140L194 134L188 134L188 122L182 122L182 116L176 116L176 122L170 122L170 134L164 134L164 128L152 128L152 134L146 134L146 146L140 146L140 140L134 140L134 152L152 152L152 158L128 158L128 152L122 152L122 146L116 146L116 140L122 140L122 134L128 134L128 128L122 128L122 122L116 122L116 116L122 116L122 110L116 110L116 116L104 116L104 110L110 110L110 104L92 104L92 110L86 110L86 104L74 104L74 92L80 92L80 98L86 98L86 92L92 92L92 98L98 98L98 92L92 92L92 86L104 86L104 92L116 92L116 80L134 80L134 86L122 86L122 92L134 92L134 86L146 86L146 80L152 80L152 92L146 92L146 98L140 98L140 104L134 104L134 110L140 110L140 104L146 104L146 98L152 98L152 110L158 110L158 104L164 104L164 110L170 110L170 104L176 104L176 110L188 110L188 116L194 116L194 110L188 110L188 104L194 104L194 98L188 98L188 92L182 92L182 98L188 98L188 104L176 104L176 92L164 92L164 98L152 98L152 92L158 92L158 86L170 86L170 80L152 80L152 74L158 74L158 68L164 68L164 50L170 50L170 56L176 56L176 50L170 50L170 38L164 38L164 50L158 50L158 38L152 38L152 44L146 44L146 38L140 38L140 44L134 44L134 32L128 32L128 20L134 20L134 26L146 26L146 32L158 32L158 20L164 20L164 14L158 14L158 20L152 20L152 26L146 26L146 20L134 20L134 14L140 14L140 8L128 8z"/>
<path style="fill:#010101; stroke:none;" d="M219 8L219 38L188 38L188 8L219 8z"/>
<path style="fill:#ffffff; stroke:none;" d="M189 8L189 38L218 38L218 8L189 8z"/>
<path style="fill:#070707; stroke:none;" d="M218 8L218 38L219 38L218 8z"/>
<path style="fill:#010101; stroke:none;" d="M14 14L14 32L32 32L32 14L14 14z"/>
<path style="fill:#ffffff; stroke:none;" d="M74 14L74 26L80 26L80 32L92 32L92 26L80 26L80 20L98 20L98 14L74 14z"/>
<path style="fill:#010101; stroke:none;" d="M194 14L194 32L212 32L212 14L194 14z"/>
<path style="fill:#ffffff; stroke:none;" d="M62 20L62 26L68 26L68 20L62 20z"/>
<path style="fill:#010101; stroke:none;" d="M50 32L50 44L56 44L56 32L50 32z"/>
<path style="fill:#ffffff; stroke:none;" d="M80 38L80 50L86 50L86 38L80 38z"/>
<path style="fill:#010101; stroke:none;" d="M140 44L140 50L146 50L146 56L152 56L152 50L146 50L146 44L140 44z"/>
<path style="fill:#ffffff; stroke:none;" d="M14 56L14 62L20 62L20 56L14 56M26 56L26 68L38 68L38 74L44 74L44 68L38 68L38 62L56 62L56 56L38 56L38 62L32 62L32 56L26 56M188 56L188 62L194 62L194 56L188 56z"/>
<path style="fill:#010101; stroke:none;" d="M134 62L134 68L140 68L140 74L146 74L146 68L140 68L140 62L134 62M152 62L152 68L158 68L158 62L152 62M80 74L80 80L74 80L74 86L80 86L80 92L86 92L86 86L92 86L92 80L86 80L86 74L80 74M182 74L182 80L188 80L188 74L182 74M2 80L2 86L8 86L8 92L2 92L2 98L8 98L8 104L2 104L2 110L8 110L8 104L14 104L14 98L20 98L20 92L26 92L26 98L32 98L32 104L50 104L50 98L32 98L32 92L26 92L26 86L20 86L20 80L14 80L14 86L8 86L8 80L2 80z"/>
<path style="fill:#ffffff; stroke:none;" d="M38 80L38 86L44 86L44 80L38 80M80 80L80 86L86 86L86 80L80 80M212 86L212 92L218 92L218 86L212 86M8 92L8 98L14 98L14 92L8 92M116 98L116 104L128 104L128 98L116 98z"/>
<path style="fill:#010101; stroke:none;" d="M164 98L164 104L170 104L170 98L164 98M68 110L68 128L74 128L74 134L80 134L80 140L74 140L74 152L80 152L80 140L92 140L92 134L98 134L98 146L92 146L92 152L86 152L86 164L104 164L104 152L110 152L110 146L104 146L104 140L116 140L116 134L122 134L122 128L116 128L116 122L110 122L110 128L116 128L116 134L98 134L98 122L104 122L104 116L86 116L86 110L68 110z"/>
<path style="fill:#ffffff; stroke:none;" d="M74 116L74 128L80 128L80 134L86 134L86 128L92 128L92 122L86 122L86 116L74 116M128 116L128 122L134 122L134 134L140 134L140 128L146 128L146 122L152 122L152 116L146 116L146 122L140 122L140 116L128 116M158 116L158 122L164 122L164 116L158 116z"/>
<path style="fill:#010101; stroke:none;" d="M38 122L38 128L44 128L44 134L50 134L50 128L44 128L44 122L38 122M56 122L56 134L62 134L62 140L68 140L68 134L62 134L62 122L56 122M80 122L80 128L86 128L86 122L80 122M200 140L200 146L206 146L206 140L200 140z"/>
<path style="fill:#ffffff; stroke:none;" d="M98 146L98 152L92 152L92 158L98 158L98 152L104 152L104 146L98 146z"/>
<path style="fill:#010101; stroke:none;" d="M2 152L2 176L8 176L8 152L2 152M20 158L20 164L14 164L14 170L20 170L20 176L26 176L26 170L20 170L20 164L26 164L26 158L20 158M182 158L182 164L188 164L188 158L182 158z"/>
<path style="fill:#ffffff; stroke:none;" d="M38 164L38 170L44 170L44 164L38 164M176 176L176 194L194 194L194 176L176 176M206 176L206 182L218 182L218 176L206 176z"/>
<path style="fill:#070707; stroke:none;" d="M2 182L2 224L3 224C3 212.043 6.61066 192.988 2 182z"/>
<path style="fill:#010101; stroke:none;" d="M3 182L3 224L44 224L44 182L3 182M182 182L182 188L188 188L188 182L182 182M39 188L39 218L8 218L8 188L39 188z"/>
<path style="fill:#ffffff; stroke:none;" d="M9 188L9 218L38 218L38 188L9 188z"/>
<path style="fill:#070707; stroke:none;" d="M38 188L38 218L39 218L38 188z"/>
<path style="fill:#010101; stroke:none;" d="M14 194L14 212L32 212L32 194L14 194z"/>
<path style="fill:#ffffff; stroke:none;" d="M56 200L56 206L62 206L62 200L56 200M176 200L176 206L188 206L188 200L176 200M212 206L212 212L218 212L218 206L212 206z"/>
</svg>
